PathFileType	4	(X/Y/Z)	C:\Users\WrightLab\Desktop\Jo\P5V18.trc
DataRate	CameraRate	NumFrames	NumMarkers	Units	OrigDataRate	OrigDataStartFrame	OrigNumFrames
100.00	100.00	       30	19	mm	100.00	224	       892
Frame#	Time	Headset_Front			Headset_Back			Headset_Left			Headset_Right			Left_Shoulder			Right_Shoulder			Sternum			C7			Left Elbow			Right Elbow			Left Wrist			Right Wrist			Left ASIS			Right ASIS			S2			Left Knee			Right Knee			Left Ankle			Right Ankle			
		X1	Y1	Z1	X2	Y2	Z2	X3	Y3	Z3	X4	Y4	Z4	X5	Y5	Z5	X6	Y6	Z6	X7	Y7	Z7	X8	Y8	Z8	X9	Y9	Z9	X10	Y10	Z10	X11	Y11	Z11	X12	Y12	Z12	X13	Y13	Z13	X14	Y14	Z14	X15	Y15	Z15	X16	Y16	Z16	X17	Y17	Z17	X18	Y18	Z18	X19	Y19	Z19	

224	2.230																																		-140.98991	1483.53479	1328.18298													-104.86321	535.16364	1834.65417				-147.44327	146.34517	2003.22156	
225	2.240																																		-141.00966	1481.41748	1327.22559													-104.87135	535.08905	1834.63708				-147.65404	146.03191	2002.56287	
226	2.250																																		-141.04338	1480.85181	1327.16333													-105.01627	534.89209	1834.82153				-147.62025	145.72937	2003.02380	
227	2.260																																		-141.42957	1480.04468	1326.70166													-105.04476	534.87433	1834.71204				-147.69630	145.36081	2002.68274	
228	2.270																																		-140.95398	1479.42725	1326.46973													-105.42854	534.63263	1833.04199				-147.24229	145.87582	2004.71655	
229	2.280																																		-140.75958	1479.00842	1326.31958													-105.60630	534.46484	1833.13293				-147.29333	144.92726	2003.23816	
230	2.290																																		-140.88727	1478.57129	1326.30640													-106.22222	533.96497	1832.46350				-146.98834	144.80557	2003.05457	
231	2.300																																		-140.89598	1477.66833	1325.83557													-106.42083	533.80560	1832.57373				-146.39722	144.33691	2003.51575	
232	2.310																																		-140.25385	1476.12500	1325.80835													-106.66074	533.34747	1832.44690				-146.19678	144.18680	2003.50879	
233	2.320																																		-139.73759	1475.07385	1325.91150													-107.03519	533.03088	1832.79907				-145.96034	144.08437	2003.43945	
234	2.330																																		-139.74187	1474.76257	1325.84631													-107.50186	532.61426	1833.40381				-145.88611	144.02710	2003.45557	
235	2.340																																		-139.59332	1474.38660	1325.77026													-107.97385	531.85541	1833.66748				-145.74411	143.96011	2003.55078	
236	2.350																																		-139.80911	1473.41687	1325.42200													-108.52217	531.96185	1833.77942				-145.72864	143.80823	2003.71863	
237	2.360																																		-139.52486	1472.57800	1325.42407													-109.04469	531.92505	1834.12537				-145.67004	143.73279	2003.70166	
238	2.370																																		-139.36906	1471.32349	1325.04346													-109.69481	531.89343	1833.99438				-145.04962	143.59380	2005.15710	
239	2.380																																		-140.20654	1469.95190	1324.67822													-110.81849	531.78284	1835.02222				-145.40688	143.43814	2004.18420	
240	2.390																																		-141.17456	1468.12671	1323.65735													-111.75722	531.39380	1835.94470				-145.20752	143.40761	2005.60767	
241	2.400																																		-141.61031	1467.35571	1323.64929													-112.72346	531.08307	1836.46838				-145.65167	143.27863	2004.65771	
242	2.410																																		-141.37950	1464.75232	1324.04871													-113.97156	530.83850	1837.56213				-145.77115	143.11008	2004.85352	
243	2.420																																		-142.32962	1463.21899	1323.94885													-115.09071	530.50085	1838.47083				-145.84016	143.07822	2004.88599	
244	2.430																																		-143.48903	1461.72559	1323.84497													-117.07232	529.98291	1839.75879				-145.81819	143.04871	2004.85510	
245	2.440																																		-145.81726	1458.70007	1322.91736													-118.82458	529.41760	1841.51489				-146.09935	143.02400	2005.11548	
246	2.450																												-33.28595	1432.88562	1559.88232				-146.33905	1456.86121	1322.54016													-120.70661	528.81525	1842.61121				-146.51126	143.23851	2004.77515	
247	2.460																												-34.08035	1431.11084	1559.32104				-147.93883	1454.14905	1321.68445													-123.01826	528.99414	1842.30383				-146.55130	143.21919	2004.79163	
248	2.470																												-34.56893	1429.35583	1558.43225				-149.60406	1450.98743	1320.91284													-125.13329	529.36963	1843.92639				-146.71603	143.32092	2004.85803	
249	2.480																												-35.54225	1427.38660	1556.61792				-150.84290	1449.23352	1320.56396													-127.21600	528.90558	1845.55359				-146.70506	143.27003	2004.81165	
250	2.490																												-36.36108	1426.58679	1556.42615				-151.20049	1446.05554	1320.97681													-129.72417	528.06427	1844.98950				-146.70731	143.28146	2004.80334	
251	2.500																												-38.13412	1424.41870	1555.07507				-154.02487	1443.25269	1319.27820													-132.03096	528.11261	1844.67029				-146.74237	143.29713	2004.82129	
252	2.510																												-39.36049	1423.61609	1554.73450				-153.89629	1439.93652	1318.59656													-134.04546	528.07489	1845.88904				-146.74368	143.31993	2004.81531	
253	2.520																												-40.96160	1422.04285	1553.10779				-156.64732	1437.63672	1316.85205													-135.52989	528.29681	1846.95605				-146.75937	143.35629	2004.82263	
